<svg width="226" height="226" viewBox="0 0 226 226" fill="none" xmlns="http://www.w3.org/2000/svg">
<circle cx="113" cy="113" r="112.5" stroke="#D9D9D9"/>
<path fill-rule="evenodd" clip-rule="evenodd" d="M181.657 113C181.657 150.918 150.918 181.657 113 181.657C75.0817 181.657 44.3429 150.918 44.3429 113C44.3429 75.0817 75.0817 44.3429 113 44.3429C150.918 44.3429 181.657 75.0817 181.657 113ZM147.329 113.636C147.329 132.946 131.675 148.6 112.364 148.6C93.054 148.6 77.4 132.946 77.4 113.636C77.4 94.3255 93.054 78.6714 112.364 78.6714C131.675 78.6714 147.329 94.3255 147.329 113.636Z" fill="#D9D9D9"/>
<path d="M102.829 202C97.211 202 92.6571 197.446 92.6571 191.829V171.486C92.6571 165.868 97.211 161.314 102.829 161.314H123.171C128.789 161.314 133.343 165.868 133.343 171.486V191.829C133.343 197.446 128.789 202 123.171 202H102.829Z" fill="#D9D9D9"/>
<path d="M102.829 64.6857C97.211 64.6857 92.6571 60.1318 92.6571 54.5143V34.1714C92.6571 28.5539 97.211 24 102.829 24L123.171 24C128.789 24 133.343 28.5539 133.343 34.1714V54.5143C133.343 60.1318 128.789 64.6857 123.171 64.6857H102.829Z" fill="#D9D9D9"/>
<path d="M34.1714 133.343C28.5539 133.343 24 128.789 24 123.171L24 102.829C24 97.2111 28.5539 92.6571 34.1714 92.6571H54.5143C60.1318 92.6571 64.6857 97.211 64.6857 102.829V123.171C64.6857 128.789 60.1318 133.343 54.5143 133.343H34.1714Z" fill="#D9D9D9"/>
<path d="M171.486 133.343C165.868 133.343 161.314 128.789 161.314 123.171V102.829C161.314 97.2111 165.868 92.6571 171.486 92.6571H191.829C197.446 92.6571 202 97.211 202 102.829V123.171C202 128.789 197.446 133.343 191.829 133.343H171.486Z" fill="#D9D9D9"/>
<path d="M168.507 86.2626C164.534 90.2348 158.094 90.2348 154.122 86.2626L139.737 71.878C135.765 67.9058 135.765 61.4656 139.737 57.4934L154.122 43.1089C158.094 39.1367 164.534 39.1367 168.507 43.1089L182.891 57.4934C186.863 61.4656 186.863 67.9058 182.891 71.878L168.507 86.2626Z" fill="#D9D9D9"/>
<path d="M71.4043 182.417C67.4321 186.39 60.9919 186.39 57.0197 182.417L42.6351 168.033C38.663 164.061 38.663 157.62 42.6351 153.648L57.0197 139.264C60.9919 135.292 67.4321 135.292 71.4043 139.264L85.7889 153.648C89.761 157.62 89.761 164.061 85.7889 168.033L71.4043 182.417Z" fill="#D9D9D9"/>
<path d="M71.4043 85.7889C67.4321 89.7611 60.9919 89.7611 57.0197 85.7889L42.6351 71.4043C38.663 67.4321 38.663 60.9919 42.6351 57.0197L57.0197 42.6351C60.9919 38.663 67.4321 38.663 71.4043 42.6351L85.7889 57.0197C89.761 60.9919 89.761 67.4321 85.7889 71.4043L71.4043 85.7889Z" fill="#D9D9D9"/>
<path d="M168.033 182.417C164.061 186.39 157.62 186.39 153.648 182.417L139.264 168.033C135.292 164.061 135.292 157.62 139.264 153.648L153.648 139.264C157.62 135.292 164.061 135.292 168.033 139.264L182.417 153.648C186.39 157.62 186.39 164.061 182.417 168.033L168.033 182.417Z" fill="#D9D9D9"/>
</svg>
